# xmcd
#
# Track frame offsets:
# 150
# 27138
# 52690
# 79106
# 93448
# 110404
# 128720
# 148741
# 165763
# 189983
# 215678
# 233933
# 252698
# 263115
# 283696
#
# Disc length: 4011 seconds
#
# Revision: 0
# Processed by: cddbd v1.4PL0 Copyright (c) Steve Scherf et al.
# Submitted via: Audion 3.0.2 (http://www.panic.com/audion/)
#
DISCID=cc0fa90f
DTITLE=mixed by Jose Rives - Metro
DYEAR=1900
DGENRE=
TTITLE0=Simon-Free at last
TTITLE1=Ignacio-Humana ised
TTITLE2=Deetron.Don´t you know why?
TTITLE3=Oliver HO and James Ruskin-Mutate and survive
TTITLE4=VK Gold-Taken from the soulless e.p.
TTITLE5=Stoned baby  and J.Rives-Pirat
TTITLE6=Stoned baby-Spanish town Rmx
TTITLE7=Leandro G.-Move your body
TTITLE8=Ignacio-Virton
TTITLE9=Gerd-Arkest's Blaze
TTITLE10=Hardcell-November
TTITLE11=Mhonolink-September
TTITLE12=Oliver HO-Metaphysical e.p.
TTITLE13=Stoned baby-Special
TTITLE14=Christian Wunsch-San mista
EXTD=
EXTT0=
EXTT1=
EXTT2=
EXTT3=
EXTT4=
EXTT5=
EXTT6=
EXTT7=
EXTT8=
EXTT9=
EXTT10=
EXTT11=
EXTT12=
EXTT13=
EXTT14=
PLAYORDER=
